<svg width="466" height="359" viewBox="0 0 466 359" fill="none" xmlns="http://www.w3.org/2000/svg">
<path d="M0 42.0588C0 75.8696 27.9497 93.884 48.4045 110.014C55.6213 115.701 62.574 121.062 69.5266 121.062C76.4793 121.062 83.432 115.708 90.6488 110.007C111.111 93.8909 139.053 75.8696 139.053 42.0658C139.053 8.2619 100.814 -15.7318 69.5266 16.7789C38.2397 -15.7318 0 8.248 0 42.0588Z" fill="#CCD0FE"/>
<path d="M391.057 316.257C391.057 334.175 405.963 343.721 416.872 352.269C420.721 355.283 424.429 358.123 428.138 358.123C431.846 358.123 435.554 355.286 439.403 352.265C450.316 343.725 465.218 334.175 465.218 316.261C465.218 298.348 444.824 285.633 428.138 302.861C411.451 285.633 391.057 298.34 391.057 316.257Z" fill="#CCD0FE"/>
<circle cx="249.076" cy="179.062" r="179.062" fill="#313AA3"/>
<path d="M155.604 103.608C168.555 134.578 209.66 133.452 218.669 103.608" stroke="#F5F6FF" stroke-width="11.2617" stroke-linecap="round"/>
<path d="M273.852 104.171C286.803 135.141 327.908 134.015 336.918 104.171" stroke="#F5F6FF" stroke-width="11.2617" stroke-linecap="round"/>
<circle cx="249.076" cy="152.596" r="20.8342" fill="#F8F8F9" stroke="#F5F6FF" stroke-width="1.12617"/>
<ellipse cx="150.536" cy="145.277" rx="19.708" ry="10.6986" fill="#CCD0FE"/>
<ellipse cx="347.616" cy="145.277" rx="19.708" ry="10.6986" fill="#CCD0FE"/>
<path d="M294.123 272.347C298.628 280.23 309.89 290.928 309.89 290.928C309.89 290.928 303.133 301.627 289.619 302.753C276.104 303.879 266.532 298.586 262.59 295.433C258.649 292.28 254.707 285.298 254.707 280.23C254.707 275.162 256.959 236.872 256.959 229.552C256.959 222.232 250.202 204.776 250.202 204.776V185.444V166.111V157.477C250.202 157.477 267.658 154.098 272.726 157.477C277.794 160.856 294.123 210.407 294.123 222.232C294.123 234.057 289.619 264.463 294.123 272.347Z" fill="#CCD0FE"/>
<path d="M250.202 204.776C250.202 204.776 256.959 222.232 256.959 229.552C256.959 236.872 254.707 275.162 254.707 280.23C254.707 285.298 258.649 292.28 262.59 295.433C266.532 298.586 276.104 303.879 289.619 302.753C303.133 301.627 309.89 290.928 309.89 290.928C309.89 290.928 298.628 280.23 294.123 272.347C289.619 264.463 294.123 234.057 294.123 222.232C294.123 210.407 277.794 160.856 272.726 157.477C267.658 154.098 250.202 157.477 250.202 157.477V166.111M250.202 204.776C250.202 204.776 263.717 204.776 267.658 210.407C271.6 216.038 272.726 222.232 272.726 227.3C272.726 232.367 272.726 258.832 272.726 258.832M250.202 204.776V185.444M250.202 166.111C250.202 166.111 259.212 165.548 264.843 168.926C270.474 172.305 279.483 196.518 279.483 196.518M250.202 166.111V185.444M250.202 185.444C250.202 185.444 259.775 188.259 264.843 192.576C269.91 196.893 274.978 207.779 274.978 207.779" stroke="#6F78DC" stroke-width="3.37852" stroke-linecap="round"/>
<path d="M204.029 272.347C199.524 280.23 188.263 290.928 188.263 290.928C188.263 290.928 195.02 301.627 208.534 302.753C222.048 303.879 231.62 298.586 235.562 295.433C239.504 292.28 243.445 285.298 243.445 280.23C243.445 275.162 241.193 236.872 241.193 229.552C241.193 222.232 247.95 204.776 247.95 204.776V185.444V166.111V157.477C247.95 157.477 230.494 154.098 225.426 157.477C220.359 160.856 204.029 210.407 204.029 222.232C204.029 234.057 208.534 264.463 204.029 272.347Z" fill="#CCD0FE"/>
<path d="M247.95 204.776C247.95 204.776 241.193 222.232 241.193 229.552C241.193 236.872 243.445 275.162 243.445 280.23C243.445 285.298 239.504 292.28 235.562 295.433C231.62 298.586 222.048 303.879 208.534 302.753C195.02 301.627 188.263 290.928 188.263 290.928C188.263 290.928 199.524 280.23 204.029 272.347C208.534 264.463 204.029 234.057 204.029 222.232C204.029 210.407 220.359 160.856 225.426 157.477C230.494 154.098 247.95 157.477 247.95 157.477V166.111M247.95 204.776C247.95 204.776 234.436 204.776 230.494 210.407C226.553 216.038 225.426 222.232 225.426 227.3C225.426 232.367 225.426 258.832 225.426 258.832M247.95 204.776V185.444M247.95 166.111C247.95 166.111 238.941 165.548 233.31 168.926C227.679 172.305 218.669 196.518 218.669 196.518M247.95 166.111V185.444M247.95 185.444C247.95 185.444 238.377 188.259 233.31 192.576C228.242 196.893 223.174 207.779 223.174 207.779" stroke="#6F78DC" stroke-width="3.37852" stroke-linecap="round"/>
</svg>
